<svg width="24" height="24" viewBox="0 0 24 24" fill="none" xmlns="http://www.w3.org/2000/svg">
    <defs>
        <style>
        <![CDATA[
              .g { display: none; }
              .g:target { display: inline; }
            ]]>
      </style>
    </defs>
    <g class="g" id="app">
        <path d="M3 2V22H16V17H5V7H16V2H3ZM14 19V20H5V19H14ZM14 5H5V4H14V5Z" fill="#1D59F9" />
        <path
            d="M15 11C15.5523 11 16 10.5523 16 10C16 9.44772 15.5523 9 15 9C14.4477 9 14 9.44772 14 10C14 10.5523 14.4477 11 15 11Z"
            fill="#1D59F9" />
        <path
            d="M19 11C19.5523 11 20 10.5523 20 10C20 9.44772 19.5523 9 19 9C18.4477 9 18 9.44772 18 10C18 10.5523 18.4477 11 19 11Z"
            fill="#1D59F9" />
        <path
            d="M15 15C15.5523 15 16 14.5523 16 14C16 13.4477 15.5523 13 15 13C14.4477 13 14 13.4477 14 14C14 14.5523 14.4477 15 15 15Z"
            fill="#1D59F9" />
        <path
            d="M19 15C19.5523 15 20 14.5523 20 14C20 13.4477 19.5523 13 19 13C18.4477 13 18 13.4477 18 14C18 14.5523 18.4477 15 19 15Z"
            fill="#1D59F9" />
    </g>
    <g class="g" id="barcode">
        <path d="M4 17H2V22H7V20H4V17Z" fill="#1D59F9" />
        <path d="M20 20H17V22H22V17H20V20Z" fill="#1D59F9" />
        <path d="M17 2V4H20V7H22V2H17Z" fill="#1D59F9" />
        <path d="M2 7H4V4H7V2H2V7Z" fill="#1D59F9" />
        <path d="M11 9H9V15H11V9Z" fill="#1D59F9" />
        <path d="M7 9H5V15H7V9Z" fill="#1D59F9" />
        <path d="M15 9H13V15H15V9Z" fill="#1D59F9" />
        <path d="M19 9H17V15H19V9Z" fill="#1D59F9" />
    </g>
    <g class="g" id="business">
        <path
            d="M22.28 12L19.78 2H4.21997L1.71997 12H3.99997V22H20V12H22.28ZM19.72 10H17.78L16.28 4H18.22L19.72 10ZM8.27997 10L9.77997 4H11V10H8.27997ZM13 4H14.22L15.72 10H13V4ZM5.77997 4H7.71997L6.21997 10H4.27997L5.77997 4ZM18 20H5.99997V12H18V20Z"
            fill="#1D59F9" />
    </g>
    <g class="g" id="coupon">
        <path
            d="M10.3399 1.92999L3.12993 3.12999L1.92993 10.34L13.9999 22.41L22.4099 14L10.3399 1.92999ZM4.06993 9.65999L4.86993 4.86999L9.65993 4.06999L19.5899 14L13.9999 19.59L4.06993 9.65999Z"
            fill="#1D59F9" />
        <path d="M8 7C7.45 7 7 7.45 7 8C7 8.55 7.45 9 8 9C8.55 9 9 8.55 9 8C9 7.45 8.55 7 8 7Z"
            fill="#1D59F9" />
    </g>
    <g class="g" id="email">
        <path
            d="M2 4V20H22V4H2ZM18.61 6L12 10.46L5.39 6H18.6H18.61ZM4 18V7.47L12 12.87L20 7.47V18H4Z"
            fill="#1D59F9" />
    </g>
    <g class="g" id="event">
        <path
            d="M19.04 4V2H17.04V4H6.96V2H4.96V4H2V20.98H22V4H19.04ZM20 6V8H4V6H20ZM4 18.98V10H20V18.98H4Z"
            fill="#1D59F9" />
        <path d="M18 15H16V17H18V15Z" fill="#1D59F9" />
    </g>
    <g class="g" id="feedback">
        <path
            d="M10.15 13L12 12.03L13.85 13L13.5 10.94L15 9.48005L12.92 9.17005L12 7.30005L11.08 9.17005L9 9.48005L10.5 10.94L10.15 13Z"
            fill="#1D59F9" />
        <path d="M2 2V18H8.5L12 22.67L15.5 18H22V2H2ZM20 16H14.5L12 19.33L9.5 16H4V4H20V16Z"
            fill="#1D59F9" />
    </g>
    <g class="g" id="images">
        <path
            d="M2 2V22H22V2H2ZM20 4V18.59L13.94 12.53L10.25 16.84L8 14.59L4 18.59V4H20ZM7.54 20H5.41L8 17.41L8.95 18.36L7.54 20ZM14.06 15.47L18.59 20H10.18L14.06 15.47Z"
            fill="#1D59F9" />
        <path
            d="M9 12C10.65 12 12 10.65 12 9C12 7.35 10.65 6 9 6C7.35 6 6 7.35 6 9C6 10.65 7.35 12 9 12ZM9 8C9.55 8 10 8.45 10 9C10 9.55 9.55 10 9 10C8.45 10 8 9.55 8 9C8 8.45 8.45 8 9 8Z"
            fill="#1D59F9" />
    </g>
    <g class="g" id="landing">
        <path d="M2 2V22H22V2H2ZM20 4V6H4V4H20ZM4 20V8H20V20H4Z" fill="#1D59F9" />
        <path d="M18 13H6V15H18V13Z" fill="#1D59F9" />
        <path d="M15 16H9V18H15V16Z" fill="#1D59F9" />
        <path
            d="M12 12C12.5523 12 13 11.5523 13 11C13 10.4477 12.5523 10 12 10C11.4477 10 11 10.4477 11 11C11 11.5523 11.4477 12 12 12Z"
            fill="#1D59F9" />
    </g>
    <g class="g" id="link-list">
        <path d="M3 2V22H6V20H5V4H19V13H21V2H3Z" fill="#1D59F9" />
        <path d="M17 6H7V8H17V6Z" fill="#1D59F9" />
        <path d="M17 10H7V12H17V10Z" fill="#1D59F9" />
        <path
            d="M9 18C9 16.9 9.88 16 10.96 16H13V14H10.96C8.77 14 7 15.79 7 18C7 20.21 8.78 22 10.96 22H13V20H10.96C9.88 20 9 19.1 9 18Z"
            fill="#1D59F9" />
        <path
            d="M17.04 14H15.03V16H17.04C18.12 16 19 16.9 19 18C19 19.1 18.12 20 17.04 20H15.03V22H17.04C19.23 22 21 20.21 21 18C21 15.79 19.22 14 17.04 14Z"
            fill="#1D59F9" />
        <path d="M16 17H12V19H16V17Z" fill="#1D59F9" />
    </g>
    <g class="g" id="menu">
        <path d="M3 2V22H21V2H3ZM19 20H5V4H19V20Z" fill="#1D59F9" />
        <path
            d="M17 10H16C16 8.14 14.72 6.59 13 6.14V5H11V6.14C9.28 6.59 8 8.14 8 10H7V12H17V10ZM10 10C10 8.9 10.9 8 12 8C13.1 8 14 8.9 14 10H10Z"
            fill="#1D59F9" />
        <path d="M13 13H7V15H13V13Z" fill="#1D59F9" />
        <path
            d="M16 15C16.5523 15 17 14.5523 17 14C17 13.4477 16.5523 13 16 13C15.4477 13 15 13.4477 15 14C15 14.5523 15.4477 15 16 15Z"
            fill="#1D59F9" />
        <path d="M13 16H7V18H13V16Z" fill="#1D59F9" />
        <path
            d="M16 18C16.5523 18 17 17.5523 17 17C17 16.4477 16.5523 16 16 16C15.4477 16 15 16.4477 15 17C15 17.5523 15.4477 18 16 18Z"
            fill="#1D59F9" />
    </g>
    <g class="g" id="mp3">
        <path
            d="M11 13.06C10.84 13.03 10.67 13.01 10.5 13.01C9.12 13.01 8 14.13 8 15.51C8 16.89 9.12 18.01 10.5 18.01C11.88 18.01 13 16.89 13 15.51C13 15.34 12.98 15.17 12.95 15.01H13V8.01001H15V6.01001H11V13.07V13.06Z"
            fill="#1D59F9" />
        <path d="M16.41 2H3V22H21V6.59L16.41 2ZM19 20H5V4H15.59L19 7.41V20Z" fill="#1D59F9" />
    </g>
    <g class="g" id="pdf">
        <path d="M21 5.86L16.72 2H3V22H21V20H5V4H15.95L19 6.75V11H21V5.86Z" fill="#1D59F9" />
        <path
            d="M10.5 13.05C10.21 12.9 9.88004 12.82 9.50004 12.82H7.16004C7.16004 12.82 7.09004 12.83 7.07004 12.85C7.05004 12.87 7.04004 12.9 7.04004 12.94V18.3C7.04004 18.3 7.05004 18.37 7.07004 18.39C7.09004 18.41 7.12004 18.42 7.16004 18.42H8.42004C8.42004 18.42 8.49004 18.41 8.51004 18.39C8.53004 18.37 8.54004 18.34 8.54004 18.3V16.5C8.54004 16.5 8.55004 16.46 8.58004 16.46H9.43004C9.82004 16.46 10.16 16.39 10.46 16.24C10.76 16.09 10.99 15.88 11.16 15.61C11.32 15.34 11.41 15.02 11.41 14.67C11.41 14.32 11.33 13.99 11.17 13.71C11.01 13.43 10.79 13.21 10.5 13.06V13.05ZM9.73004 15.11C9.61004 15.21 9.45004 15.27 9.25004 15.27H8.58004C8.58004 15.27 8.54004 15.26 8.54004 15.23V14.16C8.54004 14.16 8.55004 14.12 8.58004 14.12H9.25004C9.45004 14.12 9.61004 14.17 9.73004 14.28C9.85004 14.39 9.91004 14.53 9.91004 14.7C9.91004 14.87 9.85004 15.01 9.73004 15.11Z"
            fill="#1D59F9" />
        <path
            d="M15.1901 13.05C14.8601 12.9 14.4701 12.83 14.0401 12.83H11.9801C11.9801 12.83 11.9101 12.84 11.8901 12.86C11.8701 12.88 11.8601 12.91 11.8601 12.95V18.31C11.8601 18.31 11.8701 18.38 11.8901 18.4C11.9101 18.42 11.9401 18.43 11.9801 18.43H14.0401C14.4701 18.43 14.8501 18.36 15.1901 18.21C15.5201 18.06 15.7801 17.85 15.9601 17.58C16.1401 17.31 16.2301 16.99 16.2301 16.64V14.64C16.2301 14.28 16.1401 13.97 15.9601 13.7C15.7801 13.43 15.5201 13.22 15.1901 13.07V13.05ZM14.7201 16.37C14.7201 16.6 14.6501 16.78 14.5401 16.93C14.4301 17.08 14.2701 17.14 14.0901 17.14H13.4001C13.4001 17.14 13.3601 17.13 13.3601 17.1V14.16C13.3601 14.16 13.3701 14.12 13.4001 14.12H14.0801C14.2701 14.12 14.4301 14.19 14.5401 14.33C14.6601 14.47 14.7201 14.66 14.7201 14.89V16.38V16.37Z"
            fill="#1D59F9" />
        <path
            d="M18.35 14.11H20.73C20.73 14.11 20.8 14.1 20.82 14.08C20.84 14.06 20.85 14.03 20.85 13.99V12.94C20.85 12.94 20.84 12.87 20.82 12.85C20.8 12.83 20.77 12.82 20.73 12.82H16.92C16.92 12.82 16.85 12.83 16.83 12.85C16.81 12.87 16.8 12.9 16.8 12.94V18.3C16.8 18.3 16.81 18.37 16.83 18.39C16.85 18.41 16.88 18.42 16.92 18.42H18.18C18.18 18.42 18.2501 18.41 18.2701 18.39C18.2901 18.37 18.3 18.34 18.3 18.3V16.26C18.3 16.26 18.31 16.22 18.34 16.22H19.82C19.82 16.22 19.89 16.21 19.91 16.19C19.93 16.17 19.9401 16.14 19.9401 16.1V15.06C19.9401 15.06 19.94 14.99 19.91 14.97C19.88 14.95 19.86 14.94 19.82 14.94H18.34C18.34 14.94 18.3 14.93 18.3 14.9V14.15C18.3 14.15 18.31 14.11 18.34 14.11H18.35Z"
            fill="#1D59F9" />
    </g>
    <g class="g" id="playlist">
        <path
            d="M15 5V14.05C14.84 14.02 14.67 14 14.5 14C13.12 14 12 15.12 12 16.5C12 17.88 13.12 19 14.5 19C15.71 19 16.72 18.14 16.95 17H17V7H20V5H15Z"
            fill="#1D59F9" />
        <path d="M12 5H4V7H12V5Z" fill="#1D59F9" />
        <path d="M12 9H4V11H12V9Z" fill="#1D59F9" />
        <path d="M10 13H4V15H10V13Z" fill="#1D59F9" />
    </g>
    <g class="g" id="product">
        <path d="M16 2H8H2V22H22V2H16ZM14 4V11H10V4H14ZM20 20H4V4H8V13H16V4H20V20Z" fill="#1D59F9" />
        <path d="M18 16.5H13V18.5H18V16.5Z" fill="#1D59F9" />
    </g>
    <g class="g" id="sms">
        <path d="M2 2V19H10.57L17 22.74V19H22V2H2ZM20 17H15V19.26L11.11 17H4V4H20V17Z"
            fill="#1D59F9" />
        <path
            d="M8 11C8.55228 11 9 10.5523 9 10C9 9.44772 8.55228 9 8 9C7.44772 9 7 9.44772 7 10C7 10.5523 7.44772 11 8 11Z"
            fill="#1D59F9" />
        <path
            d="M12 11C12.5523 11 13 10.5523 13 10C13 9.44772 12.5523 9 12 9C11.4477 9 11 9.44772 11 10C11 10.5523 11.4477 11 12 11Z"
            fill="#1D59F9" />
        <path
            d="M16 11C16.5523 11 17 10.5523 17 10C17 9.44772 16.5523 9 16 9C15.4477 9 15 9.44772 15 10C15 10.5523 15.4477 11 16 11Z"
            fill="#1D59F9" />
    </g>
    <g class="g" id="social">
        <path d="M15 8V4H8V9H3V20H21V8H15ZM8 18H5V11H8V18ZM19 18H10V6H13V10H19V18Z" fill="#1D59F9" />
    </g>
    <g class="g" id="text">
        <path d="M16.72 2H3V22H21V5.86L16.72 2ZM19 20H5V4H15.95L19 6.75V20Z" fill="#1D59F9" />
        <path d="M16 15H8V17H16V15Z" fill="#1D59F9" />
        <path d="M16 12H8V14H16V12Z" fill="#1D59F9" />
        <path d="M16 9H8V11H16V9Z" fill="#1D59F9" />
        <path d="M12 6H8V8H12V6Z" fill="#1D59F9" />
    </g>
    <g class="g" id="url">
        <path
            d="M12 2C6.49 2 2 6.49 2 12C2 17.51 6.49 22 12 22C17.51 22 22 17.51 22 12C22 6.49 17.51 2 12 2ZM18.61 7.5H15.41C15.02 6.2 14.51 5.11 14.05 4.27C15.93 4.77 17.55 5.93 18.62 7.5H18.61ZM20 12C20 12.87 19.85 13.71 19.59 14.5H15.86C15.99 13.71 16.07 12.88 16.07 12C16.07 11.12 15.99 10.29 15.86 9.5H19.59C19.85 10.29 20 11.13 20 12ZM10.16 14.5C10.01 13.72 9.92 12.89 9.92 12C9.92 11.11 10.01 10.28 10.16 9.5H13.84C13.99 10.28 14.08 11.11 14.08 12C14.08 12.89 13.99 13.72 13.84 14.5H10.16ZM13.3 16.5C12.89 17.66 12.41 18.59 12 19.25C11.6 18.59 11.11 17.66 10.7 16.5H13.29H13.3ZM10.7 7.5C11.11 6.34 11.6 5.41 12 4.75C12.4 5.41 12.89 6.34 13.3 7.5H10.7ZM9.96 4.27C9.49 5.11 8.99 6.2 8.6 7.5H5.4C6.47 5.93 8.08 4.77 9.97 4.27H9.96ZM4.41 9.5H8.14C8.01 10.28 7.93 11.12 7.93 12C7.93 12.88 8.01 13.72 8.14 14.5H4.41C4.15 13.71 4 12.87 4 12C4 11.13 4.15 10.29 4.41 9.5ZM5.39 16.5H8.59C8.98 17.8 9.49 18.89 9.95 19.73C8.07 19.23 6.45 18.07 5.38 16.5H5.39ZM14.04 19.73C14.51 18.89 15.01 17.8 15.4 16.5H18.6C17.53 18.07 15.92 19.23 14.03 19.73H14.04Z"
            fill="#1D59F9" />
    </g>
    <g class="g" id="vcard">
        <path
            d="M13 5V3H11V5H3V22H21V5H13ZM9 20V19C9 18.45 9.45 18 10 18H14C14.55 18 15 18.45 15 19V20H9ZM19 20H17V19C17 17.35 15.65 16 14 16H10C8.35 16 7 17.35 7 19V20H5V7H11V8.21H13V7H19V20Z"
            fill="#1D59F9" />
        <path
            d="M12 9.40997C10.35 9.40997 9 10.76 9 12.41C9 14.06 10.35 15.41 12 15.41C13.65 15.41 15 14.06 15 12.41C15 10.76 13.65 9.40997 12 9.40997ZM12 13.41C11.45 13.41 11 12.96 11 12.41C11 11.86 11.45 11.41 12 11.41C12.55 11.41 13 11.86 13 12.41C13 12.96 12.55 13.41 12 13.41Z"
            fill="#1D59F9" />
    </g>
    <g class="g" id="vcard-plus">
        <path
            d="M21 10H19L19.02 20H17.02V19C17.02 17.35 15.67 16 14.02 16H10.02C8.37002 16 7.02002 17.35 7.02002 19V20H5.02002V7H11V8H13V7H15V5H13.01V3H11.01V5H3.02002V22H21.02L20.99 10H21ZM9.02002 20V19C9.02002 18.45 9.47002 18 10.02 18H14.02C14.57 18 15.02 18.45 15.02 19V20H9.02002Z"
            fill="#1D59F9" />
        <path
            d="M12.02 9C10.37 9 9.02002 10.35 9.02002 12C9.02002 13.65 10.37 15 12.02 15C13.67 15 15.02 13.65 15.02 12C15.02 10.35 13.67 9 12.02 9ZM12.02 13C11.47 13 11.02 12.55 11.02 12C11.02 11.45 11.47 11 12.02 11C12.57 11 13.02 11.45 13.02 12C13.02 12.55 12.57 13 12.02 13Z"
            fill="#1D59F9" />
        <path d="M18 8H20V7H21V5H20V4H18V5H17V7H18V8Z" fill="#1D59F9" />
    </g>
    <g class="g" id="video">
        <path d="M2 2V22H22V2H2ZM20 4V16H4V4H20ZM4 20V18H20V20H4Z" fill="#1D59F9" />
        <path d="M10 7V13L15 10L10 7Z" fill="#1D59F9" />
    </g>
    <g class="g" id="whatsapp">
        <path fill-rule="evenodd" clip-rule="evenodd"
            d="M12 2C6.49004 2 2.00004 6.49 2.00004 12C2.00004 13.56 2.37004 15.11 3.07004 16.5L1.79004 22.32L7.67004 21.02C9.00004 21.69 10.38 22 12 22C17.51 22 22 17.51 22 12C22 6.49 17.51 2 12 2ZM12 20C10.63 20 9.53004 19.74 8.43004 19.16L7.94004 18.91L4.41004 19.69L5.18004 16.21L5.00004 15.88C4.35004 14.7 4.00004 13.36 4.00004 12.01C4.00004 7.6 7.59004 4.01 12 4.01C16.41 4.01 20 7.6 20 12.01C20 16.42 16.41 20.01 12 20.01V20Z"
            fill="#1D59F9" />
        <path fill-rule="evenodd" clip-rule="evenodd"
            d="M15.44 13.34C15.06 13.11 14.56 12.85 14.11 13.04C13.77 13.18 13.54 13.72 13.32 14C13.21 14.14 13.07 14.17 12.89 14.1C11.59 13.58 10.6 12.72 9.88001 11.52C9.76001 11.34 9.79001 11.19 9.93001 11.02C10.14 10.76 10.42 10.48 10.47 10.13C10.53 9.78997 10.36 9.38997 10.22 9.08997C10.04 8.69997 9.84001 8.13997 9.45001 7.91997C9.09001 7.71997 8.62001 7.82997 8.30001 8.08997C7.75001 8.53997 7.48001 9.24997 7.49001 9.93997C7.49001 10.14 7.51001 10.34 7.57001 10.53C7.68001 10.99 7.89001 11.42 8.13001 11.83C8.31001 12.14 8.50001 12.44 8.72001 12.73C9.41001 13.67 10.27 14.49 11.27 15.1C11.77 15.4 12.3 15.67 12.86 15.86C13.48 16.07 14.04 16.28 14.72 16.15C15.42 16.02 16.12 15.58 16.4 14.9C16.49 14.7 16.52 14.48 16.48 14.27C16.39 13.83 15.79 13.57 15.44 13.36V13.34Z"
            fill="#1D59F9" />
    </g>
    <g class="g" id="wifi">
        <path
            d="M11.98 19C12.5433 19 13 18.5434 13 17.98C13 17.4167 12.5433 16.96 11.98 16.96C11.4166 16.96 10.96 17.4167 10.96 17.98C10.96 18.5434 11.4166 19 11.98 19Z"
            fill="#1D59F9" />
        <path
            d="M11.9801 13.11C10.3301 13.11 8.89008 13.99 8.08008 15.3L9.59008 16.82C9.95008 15.85 10.8801 15.15 11.9801 15.15C13.0801 15.15 14.0001 15.85 14.3601 16.82L15.8801 15.3C15.0701 13.99 13.6301 13.11 11.9801 13.11Z"
            fill="#1D59F9" />
        <path
            d="M11.98 9.53998C9.34001 9.53998 7.00001 10.8 5.51001 12.74L6.97001 14.2C8.08001 12.62 9.91001 11.59 11.99 11.59C14.07 11.59 15.89 12.63 17 14.2L18.46 12.74C16.96 10.8 14.62 9.53998 11.99 9.53998H11.98Z"
            fill="#1D59F9" />
        <path
            d="M11.98 5.96002C8.35996 5.96002 5.11996 7.61002 2.95996 10.19L4.40996 11.64C6.18996 9.42002 8.91996 8.00002 11.98 8.00002C15.04 8.00002 17.76 9.42002 19.55 11.64L21 10.19C18.84 7.61002 15.6 5.96002 11.98 5.96002Z"
            fill="#1D59F9" />
    </g>
</svg>
  